# xmcd
#
# Track frame offsets: 
#        150
#        21599
#        44235
#        65286
#        78708
#        86241
#        108761
#        133744
#        150910
#        168150
#        184932
#        203142
#
# Disc length: 2941 seconds
#
# Revision: 1
# Processed by: cddbd v1.5.2PL0 Copyright (c) Steve Scherf et al.
# Submitted via: ExactAudioCopy v1.0b4
#
DISCID=a30b7b0c
DTITLE=Moreland and Arbuckle - Floyd's Market
DYEAR=2006
DGENRE=Blues Rock
TTITLE0=Locomotive
TTITLE1=Long Past Midnight
TTITLE2=Fo'
TTITLE3=Place To Be
TTITLE4=Unsung
TTITLE5=So Low
TTITLE6=Meet Me In The City
TTITLE7=Variations On Juke
TTITLE8=Future Blues
TTITLE9=Date With The Devil
TTITLE10=Long Way Home
TTITLE11=Meltdown
EXTD=
EXTT0=
EXTT1=
EXTT2=
EXTT3=
EXTT4=
EXTT5=
EXTT6=
EXTT7=
EXTT8=
EXTT9=
EXTT10=
EXTT11=
PLAYORDER=
